# xmcd CD database file
#
# Track frame offsets:
#	150
#	13595
#	28803
#	56187
#	84458
#	106805
#	141226
#	168208
#	189776
#	209120
#	234440
#	250623
#	268295
#
# Disc length: 3930 seconds
#
# Revision: 1
# Processed by: cddbd v1.5.2PL0 Copyright (c) Steve Scherf et al.
# Submitted via: CDex 1.51
#
DISCID=b10f580d
DTITLE=Varios - Smooth Jazz 2
DYEAR=1900
DGENRE=Jazz
TTITLE0=Paul Winter Consort - Icarus
TTITLE1=Antônio Carlos Jobim - Stone Flower
TTITLE2=George Benson and Joe Farrell - Flute Song
TTITLE3=Ramsey Lewis - A Time For Love
TTITLE4=Lee Ritenour - Fly By Night
TTITLE5=Hubert Laws - Pavane
TTITLE6=Kirk Whalum - Through The Fire
TTITLE7=Jean-Luc Ponty - Faith In You
TTITLE8=Steve Gadd - Morning Love
TTITLE9=Geoff Keezer and Diana Krall - The Nearness Of You
TTITLE10=Milton Nascimento - La Bamba
TTITLE11=Rachel Z. - Go!
TTITLE12=Full Circle - Music For Little People
EXTD=
EXTT0=
EXTT1=
EXTT2=
EXTT3=
EXTT4=
EXTT5=
EXTT6=
EXTT7=
EXTT8=
EXTT9=
EXTT10=
EXTT11=
EXTT12=
PLAYORDER=
